ISO-10303-21;
HEADER;
/* Generated by software containing ST-Developer
 * from STEP Tools, Inc. (www.steptools.com) 
 */

FILE_DESCRIPTION(
/* description */ (''),
/* implementation_level */ '2;1');

FILE_NAME(
/* name */ 'Mt1-2.step',
/* time_stamp */ '2026-07-16T16:13:35+02:00',
/* author */ (''),
/* organization */ (''),
/* preprocessor_version */ 'ST-DEVELOPER v20.1',
/* originating_system */ 'Autodesk Translation Framework v15.8.0.0',
/* authorisation */ '');

FILE_SCHEMA (('AUTOMOTIVE_DESIGN { 1 0 10303 214 3 1 1 }'));
ENDSEC;

DATA;
#10=MECHANICAL_DESIGN_GEOMETRIC_PRESENTATION_REPRESENTATION('',(#19,#20),
#704);
#11=ITEM_DEFINED_TRANSFORMATION($,$,#440,#469);
#12=(
REPRESENTATION_RELATIONSHIP($,$,#715,#714)
REPRESENTATION_RELATIONSHIP_WITH_TRANSFORMATION(#11)
SHAPE_REPRESENTATION_RELATIONSHIP()
);
#13=CONTEXT_DEPENDENT_SHAPE_REPRESENTATION(#12,#713);
#14=NEXT_ASSEMBLY_USAGE_OCCURRENCE('Esterno1:1','Esterno1:1',
'Esterno1:1',#717,#718,'Esterno1:1');
#15=SHAPE_REPRESENTATION_RELATIONSHIP('SRR','None',#715,#17);
#16=SHAPE_REPRESENTATION_RELATIONSHIP('SRR','None',#714,#18);
#17=ADVANCED_BREP_SHAPE_REPRESENTATION('',(#21),#703);
#18=ADVANCED_BREP_SHAPE_REPRESENTATION('',(#22),#702);
#19=STYLED_ITEM('',(#728),#21);
#20=STYLED_ITEM('',(#728),#22);
#21=MANIFOLD_SOLID_BREP('Corpo1',#425);
#22=MANIFOLD_SOLID_BREP('Corpo1',#426);
#23=FACE_BOUND('',#83,.T.);
#24=FACE_BOUND('',#85,.T.);
#25=PLANE('',#444);
#26=PLANE('',#445);
#27=PLANE('',#446);
#28=PLANE('',#447);
#29=PLANE('',#448);
#30=PLANE('',#449);
#31=PLANE('',#450);
#32=PLANE('',#451);
#33=PLANE('',#452);
#34=PLANE('',#453);
#35=PLANE('',#454);
#36=PLANE('',#455);
#37=PLANE('',#456);
#38=PLANE('',#457);
#39=PLANE('',#458);
#40=PLANE('',#459);
#41=PLANE('',#460);
#42=PLANE('',#461);
#43=PLANE('',#462);
#44=PLANE('',#463);
#45=PLANE('',#464);
#46=PLANE('',#466);
#47=FACE_OUTER_BOUND('',#71,.T.);
#48=FACE_OUTER_BOUND('',#72,.T.);
#49=FACE_OUTER_BOUND('',#73,.T.);
#50=FACE_OUTER_BOUND('',#74,.T.);
#51=FACE_OUTER_BOUND('',#75,.T.);
#52=FACE_OUTER_BOUND('',#76,.T.);
#53=FACE_OUTER_BOUND('',#77,.T.);
#54=FACE_OUTER_BOUND('',#78,.T.);
#55=FACE_OUTER_BOUND('',#79,.T.);
#56=FACE_OUTER_BOUND('',#80,.T.);
#57=FACE_OUTER_BOUND('',#81,.T.);
#58=FACE_OUTER_BOUND('',#82,.T.);
#59=FACE_OUTER_BOUND('',#84,.T.);
#60=FACE_OUTER_BOUND('',#86,.T.);
#61=FACE_OUTER_BOUND('',#87,.T.);
#62=FACE_OUTER_BOUND('',#88,.T.);
#63=FACE_OUTER_BOUND('',#89,.T.);
#64=FACE_OUTER_BOUND('',#90,.T.);
#65=FACE_OUTER_BOUND('',#91,.T.);
#66=FACE_OUTER_BOUND('',#92,.T.);
#67=FACE_OUTER_BOUND('',#93,.T.);
#68=FACE_OUTER_BOUND('',#94,.T.);
#69=FACE_OUTER_BOUND('',#95,.T.);
#70=FACE_OUTER_BOUND('',#96,.T.);
#71=EDGE_LOOP('',(#291,#292,#293,#294));
#72=EDGE_LOOP('',(#295));
#73=EDGE_LOOP('',(#296,#297,#298,#299));
#74=EDGE_LOOP('',(#300,#301,#302,#303));
#75=EDGE_LOOP('',(#304,#305,#306,#307));
#76=EDGE_LOOP('',(#308,#309,#310,#311));
#77=EDGE_LOOP('',(#312,#313,#314,#315));
#78=EDGE_LOOP('',(#316,#317,#318,#319));
#79=EDGE_LOOP('',(#320,#321,#322,#323));
#80=EDGE_LOOP('',(#324,#325,#326,#327));
#81=EDGE_LOOP('',(#328,#329,#330,#331));
#82=EDGE_LOOP('',(#332,#333,#334,#335));
#83=EDGE_LOOP('',(#336));
#84=EDGE_LOOP('',(#337,#338,#339,#340));
#85=EDGE_LOOP('',(#341,#342,#343,#344));
#86=EDGE_LOOP('',(#345,#346,#347,#348));
#87=EDGE_LOOP('',(#349,#350,#351,#352));
#88=EDGE_LOOP('',(#353,#354,#355,#356,#357,#358,#359,#360));
#89=EDGE_LOOP('',(#361,#362,#363,#364));
#90=EDGE_LOOP('',(#365,#366,#367,#368,#369,#370,#371,#372));
#91=EDGE_LOOP('',(#373,#374,#375,#376));
#92=EDGE_LOOP('',(#377,#378,#379,#380,#381,#382,#383,#384));
#93=EDGE_LOOP('',(#385,#386,#387,#388,#389,#390,#391,#392));
#94=EDGE_LOOP('',(#393));
#95=EDGE_LOOP('',(#394));
#96=EDGE_LOOP('',(#395,#396,#397,#398));
#97=LINE('',#588,#147);
#98=LINE('',#594,#148);
#99=LINE('',#596,#149);
#100=LINE('',#598,#150);
#101=LINE('',#599,#151);
#102=LINE('',#602,#152);
#103=LINE('',#604,#153);
#104=LINE('',#605,#154);
#105=LINE('',#608,#155);
#106=LINE('',#610,#156);
#107=LINE('',#611,#157);
#108=LINE('',#613,#158);
#109=LINE('',#614,#159);
#110=LINE('',#619,#160);
#111=LINE('',#621,#161);
#112=LINE('',#623,#162);
#113=LINE('',#624,#163);
#114=LINE('',#628,#164);
#115=LINE('',#630,#165);
#116=LINE('',#632,#166);
#117=LINE('',#633,#167);
#118=LINE('',#635,#168);
#119=LINE('',#636,#169);
#120=LINE('',#639,#170);
#121=LINE('',#641,#171);
#122=LINE('',#642,#172);
#123=LINE('',#646,#173);
#124=LINE('',#648,#174);
#125=LINE('',#650,#175);
#126=LINE('',#651,#176);
#127=LINE('',#654,#177);
#128=LINE('',#656,#178);
#129=LINE('',#657,#179);
#130=LINE('',#660,#180);
#131=LINE('',#662,#181);
#132=LINE('',#663,#182);
#133=LINE('',#666,#183);
#134=LINE('',#668,#184);
#135=LINE('',#669,#185);
#136=LINE('',#671,#186);
#137=LINE('',#673,#187);
#138=LINE('',#674,#188);
#139=LINE('',#677,#189);
#140=LINE('',#678,#190);
#141=LINE('',#681,#191);
#142=LINE('',#683,#192);
#143=LINE('',#684,#193);
#144=LINE('',#686,#194);
#145=LINE('',#687,#195);
#146=LINE('',#697,#196);
#147=VECTOR('',#478,1.375);
#148=VECTOR('',#485,10.);
#149=VECTOR('',#486,10.);
#150=VECTOR('',#487,10.);
#151=VECTOR('',#488,10.);
#152=VECTOR('',#491,10.);
#153=VECTOR('',#492,10.);
#154=VECTOR('',#493,10.);
#155=VECTOR('',#496,10.);
#156=VECTOR('',#497,10.);
#157=VECTOR('',#498,10.);
#158=VECTOR('',#501,10.);
#159=VECTOR('',#502,10.);
#160=VECTOR('',#507,10.);
#161=VECTOR('',#508,10.);
#162=VECTOR('',#509,10.);
#163=VECTOR('',#510,10.);
#164=VECTOR('',#513,10.);
#165=VECTOR('',#514,10.);
#166=VECTOR('',#515,10.);
#167=VECTOR('',#516,10.);
#168=VECTOR('',#519,10.);
#169=VECTOR('',#520,10.);
#170=VECTOR('',#523,10.);
#171=VECTOR('',#524,10.);
#172=VECTOR('',#525,10.);
#173=VECTOR('',#528,10.);
#174=VECTOR('',#529,10.);
#175=VECTOR('',#530,10.);
#176=VECTOR('',#531,10.);
#177=VECTOR('',#534,10.);
#178=VECTOR('',#535,10.);
#179=VECTOR('',#536,10.);
#180=VECTOR('',#539,10.);
#181=VECTOR('',#540,10.);
#182=VECTOR('',#541,10.);
#183=VECTOR('',#544,10.);
#184=VECTOR('',#545,10.);
#185=VECTOR('',#546,10.);
#186=VECTOR('',#549,10.);
#187=VECTOR('',#550,10.);
#188=VECTOR('',#551,10.);
#189=VECTOR('',#554,10.);
#190=VECTOR('',#555,10.);
#191=VECTOR('',#558,10.);
#192=VECTOR('',#559,10.);
#193=VECTOR('',#560,10.);
#194=VECTOR('',#563,10.);
#195=VECTOR('',#564,10.);
#196=VECTOR('',#579,1.375);
#197=CIRCLE('',#442,1.375);
#198=CIRCLE('',#443,1.375);
#199=CIRCLE('',#465,1.375);
#200=CIRCLE('',#467,1.375);
#201=VERTEX_POINT('',#585);
#202=VERTEX_POINT('',#587);
#203=VERTEX_POINT('',#592);
#204=VERTEX_POINT('',#593);
#205=VERTEX_POINT('',#595);
#206=VERTEX_POINT('',#597);
#207=VERTEX_POINT('',#601);
#208=VERTEX_POINT('',#603);
#209=VERTEX_POINT('',#607);
#210=VERTEX_POINT('',#609);
#211=VERTEX_POINT('',#617);
#212=VERTEX_POINT('',#618);
#213=VERTEX_POINT('',#620);
#214=VERTEX_POINT('',#622);
#215=VERTEX_POINT('',#626);
#216=VERTEX_POINT('',#627);
#217=VERTEX_POINT('',#629);
#218=VERTEX_POINT('',#631);
#219=VERTEX_POINT('',#638);
#220=VERTEX_POINT('',#640);
#221=VERTEX_POINT('',#644);
#222=VERTEX_POINT('',#645);
#223=VERTEX_POINT('',#647);
#224=VERTEX_POINT('',#649);
#225=VERTEX_POINT('',#653);
#226=VERTEX_POINT('',#655);
#227=VERTEX_POINT('',#659);
#228=VERTEX_POINT('',#661);
#229=VERTEX_POINT('',#665);
#230=VERTEX_POINT('',#667);
#231=VERTEX_POINT('',#672);
#232=VERTEX_POINT('',#676);
#233=VERTEX_POINT('',#680);
#234=VERTEX_POINT('',#682);
#235=VERTEX_POINT('',#691);
#236=VERTEX_POINT('',#694);
#237=EDGE_CURVE('',#201,#201,#197,.T.);
#238=EDGE_CURVE('',#201,#202,#97,.T.);
#239=EDGE_CURVE('',#202,#202,#198,.F.);
#240=EDGE_CURVE('',#203,#204,#98,.T.);
#241=EDGE_CURVE('',#203,#205,#99,.T.);
#242=EDGE_CURVE('',#206,#205,#100,.T.);
#243=EDGE_CURVE('',#204,#206,#101,.T.);
#244=EDGE_CURVE('',#204,#207,#102,.T.);
#245=EDGE_CURVE('',#208,#206,#103,.T.);
#246=EDGE_CURVE('',#207,#208,#104,.T.);
#247=EDGE_CURVE('',#207,#209,#105,.T.);
#248=EDGE_CURVE('',#210,#208,#106,.T.);
#249=EDGE_CURVE('',#209,#210,#107,.T.);
#250=EDGE_CURVE('',#209,#203,#108,.T.);
#251=EDGE_CURVE('',#205,#210,#109,.T.);
#252=EDGE_CURVE('',#211,#212,#110,.T.);
#253=EDGE_CURVE('',#211,#213,#111,.T.);
#254=EDGE_CURVE('',#214,#213,#112,.T.);
#255=EDGE_CURVE('',#212,#214,#113,.T.);
#256=EDGE_CURVE('',#215,#216,#114,.T.);
#257=EDGE_CURVE('',#215,#217,#115,.T.);
#258=EDGE_CURVE('',#218,#217,#116,.T.);
#259=EDGE_CURVE('',#216,#218,#117,.T.);
#260=EDGE_CURVE('',#217,#214,#118,.T.);
#261=EDGE_CURVE('',#213,#218,#119,.T.);
#262=EDGE_CURVE('',#219,#216,#120,.T.);
#263=EDGE_CURVE('',#220,#219,#121,.T.);
#264=EDGE_CURVE('',#220,#215,#122,.T.);
#265=EDGE_CURVE('',#221,#222,#123,.T.);
#266=EDGE_CURVE('',#221,#223,#124,.T.);
#267=EDGE_CURVE('',#224,#223,#125,.T.);
#268=EDGE_CURVE('',#222,#224,#126,.T.);
#269=EDGE_CURVE('',#222,#225,#127,.T.);
#270=EDGE_CURVE('',#226,#224,#128,.T.);
#271=EDGE_CURVE('',#225,#226,#129,.T.);
#272=EDGE_CURVE('',#225,#227,#130,.T.);
#273=EDGE_CURVE('',#228,#226,#131,.T.);
#274=EDGE_CURVE('',#227,#228,#132,.T.);
#275=EDGE_CURVE('',#227,#229,#133,.T.);
#276=EDGE_CURVE('',#230,#228,#134,.T.);
#277=EDGE_CURVE('',#229,#230,#135,.T.);
#278=EDGE_CURVE('',#229,#220,#136,.T.);
#279=EDGE_CURVE('',#231,#230,#137,.T.);
#280=EDGE_CURVE('',#212,#231,#138,.T.);
#281=EDGE_CURVE('',#232,#231,#139,.T.);
#282=EDGE_CURVE('',#211,#232,#140,.T.);
#283=EDGE_CURVE('',#219,#233,#141,.T.);
#284=EDGE_CURVE('',#234,#232,#142,.T.);
#285=EDGE_CURVE('',#233,#234,#143,.T.);
#286=EDGE_CURVE('',#221,#233,#144,.T.);
#287=EDGE_CURVE('',#223,#234,#145,.T.);
#288=EDGE_CURVE('',#235,#235,#199,.T.);
#289=EDGE_CURVE('',#236,#236,#200,.T.);
#290=EDGE_CURVE('',#236,#235,#146,.T.);
#291=ORIENTED_EDGE('',*,*,#237,.F.);
#292=ORIENTED_EDGE('',*,*,#238,.T.);
#293=ORIENTED_EDGE('',*,*,#239,.F.);
#294=ORIENTED_EDGE('',*,*,#238,.F.);
#295=ORIENTED_EDGE('',*,*,#239,.T.);
#296=ORIENTED_EDGE('',*,*,#240,.F.);
#297=ORIENTED_EDGE('',*,*,#241,.T.);
#298=ORIENTED_EDGE('',*,*,#242,.F.);
#299=ORIENTED_EDGE('',*,*,#243,.F.);
#300=ORIENTED_EDGE('',*,*,#244,.F.);
#301=ORIENTED_EDGE('',*,*,#243,.T.);
#302=ORIENTED_EDGE('',*,*,#245,.F.);
#303=ORIENTED_EDGE('',*,*,#246,.F.);
#304=ORIENTED_EDGE('',*,*,#247,.F.);
#305=ORIENTED_EDGE('',*,*,#246,.T.);
#306=ORIENTED_EDGE('',*,*,#248,.F.);
#307=ORIENTED_EDGE('',*,*,#249,.F.);
#308=ORIENTED_EDGE('',*,*,#250,.F.);
#309=ORIENTED_EDGE('',*,*,#249,.T.);
#310=ORIENTED_EDGE('',*,*,#251,.F.);
#311=ORIENTED_EDGE('',*,*,#241,.F.);
#312=ORIENTED_EDGE('',*,*,#251,.T.);
#313=ORIENTED_EDGE('',*,*,#248,.T.);
#314=ORIENTED_EDGE('',*,*,#245,.T.);
#315=ORIENTED_EDGE('',*,*,#242,.T.);
#316=ORIENTED_EDGE('',*,*,#252,.F.);
#317=ORIENTED_EDGE('',*,*,#253,.T.);
#318=ORIENTED_EDGE('',*,*,#254,.F.);
#319=ORIENTED_EDGE('',*,*,#255,.F.);
#320=ORIENTED_EDGE('',*,*,#256,.F.);
#321=ORIENTED_EDGE('',*,*,#257,.T.);
#322=ORIENTED_EDGE('',*,*,#258,.F.);
#323=ORIENTED_EDGE('',*,*,#259,.F.);
#324=ORIENTED_EDGE('',*,*,#258,.T.);
#325=ORIENTED_EDGE('',*,*,#260,.T.);
#326=ORIENTED_EDGE('',*,*,#254,.T.);
#327=ORIENTED_EDGE('',*,*,#261,.T.);
#328=ORIENTED_EDGE('',*,*,#256,.T.);
#329=ORIENTED_EDGE('',*,*,#262,.F.);
#330=ORIENTED_EDGE('',*,*,#263,.F.);
#331=ORIENTED_EDGE('',*,*,#264,.T.);
#332=ORIENTED_EDGE('',*,*,#265,.F.);
#333=ORIENTED_EDGE('',*,*,#266,.T.);
#334=ORIENTED_EDGE('',*,*,#267,.F.);
#335=ORIENTED_EDGE('',*,*,#268,.F.);
#336=ORIENTED_EDGE('',*,*,#237,.T.);
#337=ORIENTED_EDGE('',*,*,#269,.F.);
#338=ORIENTED_EDGE('',*,*,#268,.T.);
#339=ORIENTED_EDGE('',*,*,#270,.F.);
#340=ORIENTED_EDGE('',*,*,#271,.F.);
#341=ORIENTED_EDGE('',*,*,#240,.T.);
#342=ORIENTED_EDGE('',*,*,#244,.T.);
#343=ORIENTED_EDGE('',*,*,#247,.T.);
#344=ORIENTED_EDGE('',*,*,#250,.T.);
#345=ORIENTED_EDGE('',*,*,#272,.F.);
#346=ORIENTED_EDGE('',*,*,#271,.T.);
#347=ORIENTED_EDGE('',*,*,#273,.F.);
#348=ORIENTED_EDGE('',*,*,#274,.F.);
#349=ORIENTED_EDGE('',*,*,#275,.F.);
#350=ORIENTED_EDGE('',*,*,#274,.T.);
#351=ORIENTED_EDGE('',*,*,#276,.F.);
#352=ORIENTED_EDGE('',*,*,#277,.F.);
#353=ORIENTED_EDGE('',*,*,#278,.F.);
#354=ORIENTED_EDGE('',*,*,#277,.T.);
#355=ORIENTED_EDGE('',*,*,#279,.F.);
#356=ORIENTED_EDGE('',*,*,#280,.F.);
#357=ORIENTED_EDGE('',*,*,#255,.T.);
#358=ORIENTED_EDGE('',*,*,#260,.F.);
#359=ORIENTED_EDGE('',*,*,#257,.F.);
#360=ORIENTED_EDGE('',*,*,#264,.F.);
#361=ORIENTED_EDGE('',*,*,#252,.T.);
#362=ORIENTED_EDGE('',*,*,#280,.T.);
#363=ORIENTED_EDGE('',*,*,#281,.F.);
#364=ORIENTED_EDGE('',*,*,#282,.F.);
#365=ORIENTED_EDGE('',*,*,#283,.F.);
#366=ORIENTED_EDGE('',*,*,#262,.T.);
#367=ORIENTED_EDGE('',*,*,#259,.T.);
#368=ORIENTED_EDGE('',*,*,#261,.F.);
#369=ORIENTED_EDGE('',*,*,#253,.F.);
#370=ORIENTED_EDGE('',*,*,#282,.T.);
#371=ORIENTED_EDGE('',*,*,#284,.F.);
#372=ORIENTED_EDGE('',*,*,#285,.F.);
#373=ORIENTED_EDGE('',*,*,#286,.T.);
#374=ORIENTED_EDGE('',*,*,#285,.T.);
#375=ORIENTED_EDGE('',*,*,#287,.F.);
#376=ORIENTED_EDGE('',*,*,#266,.F.);
#377=ORIENTED_EDGE('',*,*,#287,.T.);
#378=ORIENTED_EDGE('',*,*,#284,.T.);
#379=ORIENTED_EDGE('',*,*,#281,.T.);
#380=ORIENTED_EDGE('',*,*,#279,.T.);
#381=ORIENTED_EDGE('',*,*,#276,.T.);
#382=ORIENTED_EDGE('',*,*,#273,.T.);
#383=ORIENTED_EDGE('',*,*,#270,.T.);
#384=ORIENTED_EDGE('',*,*,#267,.T.);
#385=ORIENTED_EDGE('',*,*,#286,.F.);
#386=ORIENTED_EDGE('',*,*,#265,.T.);
#387=ORIENTED_EDGE('',*,*,#269,.T.);
#388=ORIENTED_EDGE('',*,*,#272,.T.);
#389=ORIENTED_EDGE('',*,*,#275,.T.);
#390=ORIENTED_EDGE('',*,*,#278,.T.);
#391=ORIENTED_EDGE('',*,*,#263,.T.);
#392=ORIENTED_EDGE('',*,*,#283,.T.);
#393=ORIENTED_EDGE('',*,*,#288,.F.);
#394=ORIENTED_EDGE('',*,*,#289,.F.);
#395=ORIENTED_EDGE('',*,*,#289,.T.);
#396=ORIENTED_EDGE('',*,*,#290,.T.);
#397=ORIENTED_EDGE('',*,*,#288,.T.);
#398=ORIENTED_EDGE('',*,*,#290,.F.);
#399=CYLINDRICAL_SURFACE('',#441,1.375);
#400=CYLINDRICAL_SURFACE('',#468,1.375);
#401=ADVANCED_FACE('',(#47),#399,.T.);
#402=ADVANCED_FACE('',(#48),#25,.T.);
#403=ADVANCED_FACE('',(#49),#26,.T.);
#404=ADVANCED_FACE('',(#50),#27,.T.);
#405=ADVANCED_FACE('',(#51),#28,.T.);
#406=ADVANCED_FACE('',(#52),#29,.T.);
#407=ADVANCED_FACE('',(#53),#30,.T.);
#408=ADVANCED_FACE('',(#54),#31,.T.);
#409=ADVANCED_FACE('',(#55),#32,.T.);
#410=ADVANCED_FACE('',(#56),#33,.T.);
#411=ADVANCED_FACE('',(#57),#34,.T.);
#412=ADVANCED_FACE('',(#58,#23),#35,.T.);
#413=ADVANCED_FACE('',(#59,#24),#36,.T.);
#414=ADVANCED_FACE('',(#60),#37,.T.);
#415=ADVANCED_FACE('',(#61),#38,.T.);
#416=ADVANCED_FACE('',(#62),#39,.T.);
#417=ADVANCED_FACE('',(#63),#40,.T.);
#418=ADVANCED_FACE('',(#64),#41,.T.);
#419=ADVANCED_FACE('',(#65),#42,.T.);
#420=ADVANCED_FACE('',(#66),#43,.T.);
#421=ADVANCED_FACE('',(#67),#44,.F.);
#422=ADVANCED_FACE('',(#68),#45,.F.);
#423=ADVANCED_FACE('',(#69),#46,.T.);
#424=ADVANCED_FACE('',(#70),#400,.T.);
#425=CLOSED_SHELL('',(#401,#402,#403,#404,#405,#406,#407,#408,#409,#410,
#411,#412,#413,#414,#415,#416,#417,#418,#419,#420,#421));
#426=CLOSED_SHELL('',(#422,#423,#424));
#427=DERIVED_UNIT_ELEMENT(#429,1.);
#428=DERIVED_UNIT_ELEMENT(#706,-3.);
#429=(
MASS_UNIT()
NAMED_UNIT(*)
SI_UNIT(.KILO.,.GRAM.)
);
#430=DERIVED_UNIT((#427,#428));
#431=MEASURE_REPRESENTATION_ITEM('density measure',
POSITIVE_RATIO_MEASURE(7850.),#430);
#432=PROPERTY_DEFINITION_REPRESENTATION(#437,#434);
#433=PROPERTY_DEFINITION_REPRESENTATION(#438,#435);
#434=REPRESENTATION('material name',(#436),#703);
#435=REPRESENTATION('density',(#431),#703);
#436=DESCRIPTIVE_REPRESENTATION_ITEM('Acciaio','Acciaio');
#437=PROPERTY_DEFINITION('material property','material name',#718);
#438=PROPERTY_DEFINITION('material property','density of part',#718);
#439=AXIS2_PLACEMENT_3D('',#582,#470,#471);
#440=AXIS2_PLACEMENT_3D('',#583,#472,#473);
#441=AXIS2_PLACEMENT_3D('',#584,#474,#475);
#442=AXIS2_PLACEMENT_3D('',#586,#476,#477);
#443=AXIS2_PLACEMENT_3D('',#589,#479,#480);
#444=AXIS2_PLACEMENT_3D('',#590,#481,#482);
#445=AXIS2_PLACEMENT_3D('',#591,#483,#484);
#446=AXIS2_PLACEMENT_3D('',#600,#489,#490);
#447=AXIS2_PLACEMENT_3D('',#606,#494,#495);
#448=AXIS2_PLACEMENT_3D('',#612,#499,#500);
#449=AXIS2_PLACEMENT_3D('',#615,#503,#504);
#450=AXIS2_PLACEMENT_3D('',#616,#505,#506);
#451=AXIS2_PLACEMENT_3D('',#625,#511,#512);
#452=AXIS2_PLACEMENT_3D('',#634,#517,#518);
#453=AXIS2_PLACEMENT_3D('',#637,#521,#522);
#454=AXIS2_PLACEMENT_3D('',#643,#526,#527);
#455=AXIS2_PLACEMENT_3D('',#652,#532,#533);
#456=AXIS2_PLACEMENT_3D('',#658,#537,#538);
#457=AXIS2_PLACEMENT_3D('',#664,#542,#543);
#458=AXIS2_PLACEMENT_3D('',#670,#547,#548);
#459=AXIS2_PLACEMENT_3D('',#675,#552,#553);
#460=AXIS2_PLACEMENT_3D('',#679,#556,#557);
#461=AXIS2_PLACEMENT_3D('',#685,#561,#562);
#462=AXIS2_PLACEMENT_3D('',#688,#565,#566);
#463=AXIS2_PLACEMENT_3D('',#689,#567,#568);
#464=AXIS2_PLACEMENT_3D('',#690,#569,#570);
#465=AXIS2_PLACEMENT_3D('',#692,#571,#572);
#466=AXIS2_PLACEMENT_3D('',#693,#573,#574);
#467=AXIS2_PLACEMENT_3D('',#695,#575,#576);
#468=AXIS2_PLACEMENT_3D('',#696,#577,#578);
#469=AXIS2_PLACEMENT_3D('',#698,#580,#581);
#470=DIRECTION('axis',(0.,0.,1.));
#471=DIRECTION('refdir',(1.,0.,0.));
#472=DIRECTION('axis',(0.,0.,1.));
#473=DIRECTION('refdir',(1.,0.,0.));
#474=DIRECTION('center_axis',(1.,-1.20611360412977E-16,2.12249279374403E-17));
#475=DIRECTION('ref_axis',(2.12249279374403E-17,0.341383661943315,0.939924037014786));
#476=DIRECTION('center_axis',(1.,0.,0.));
#477=DIRECTION('ref_axis',(2.12249279374403E-17,0.341383661943315,0.939924037014786));
#478=DIRECTION('',(-1.,1.20611360412977E-16,-2.12249279374403E-17));
#479=DIRECTION('center_axis',(1.,0.,0.));
#480=DIRECTION('ref_axis',(2.12249279374403E-17,0.341383661943315,0.939924037014786));
#481=DIRECTION('center_axis',(-1.,0.,0.));
#482=DIRECTION('ref_axis',(0.,0.,1.));
#483=DIRECTION('center_axis',(0.,-1.,0.));
#484=DIRECTION('ref_axis',(-1.,0.,0.));
#485=DIRECTION('',(1.,0.,0.));
#486=DIRECTION('',(0.,0.,-1.));
#487=DIRECTION('',(-1.,0.,0.));
#488=DIRECTION('',(0.,0.,-1.));
#489=DIRECTION('center_axis',(1.,0.,0.));
#490=DIRECTION('ref_axis',(0.,-1.,0.));
#491=DIRECTION('',(0.,1.,0.));
#492=DIRECTION('',(0.,-1.,0.));
#493=DIRECTION('',(0.,0.,-1.));
#494=DIRECTION('center_axis',(0.,1.,0.));
#495=DIRECTION('ref_axis',(1.,0.,0.));
#496=DIRECTION('',(-1.,0.,0.));
#497=DIRECTION('',(1.,0.,0.));
#498=DIRECTION('',(0.,0.,-1.));
#499=DIRECTION('center_axis',(-1.,0.,0.));
#500=DIRECTION('ref_axis',(0.,1.,0.));
#501=DIRECTION('',(0.,-1.,0.));
#502=DIRECTION('',(0.,1.,0.));
#503=DIRECTION('center_axis',(0.,0.,-1.));
#504=DIRECTION('ref_axis',(-1.,0.,0.));
#505=DIRECTION('center_axis',(0.,1.,0.));
#506=DIRECTION('ref_axis',(-1.,0.,0.));
#507=DIRECTION('',(1.,0.,0.));
#508=DIRECTION('',(0.,0.,1.));
#509=DIRECTION('',(-1.,0.,0.));
#510=DIRECTION('',(0.,0.,1.));
#511=DIRECTION('center_axis',(0.,-1.,0.));
#512=DIRECTION('ref_axis',(1.,0.,0.));
#513=DIRECTION('',(-1.,0.,0.));
#514=DIRECTION('',(0.,0.,1.));
#515=DIRECTION('',(1.,0.,0.));
#516=DIRECTION('',(0.,0.,1.));
#517=DIRECTION('center_axis',(0.,0.,1.));
#518=DIRECTION('ref_axis',(1.,0.,0.));
#519=DIRECTION('',(0.,1.,0.));
#520=DIRECTION('',(0.,-1.,0.));
#521=DIRECTION('center_axis',(0.,0.,1.));
#522=DIRECTION('ref_axis',(1.,0.,0.));
#523=DIRECTION('',(0.,1.,0.));
#524=DIRECTION('',(-1.,0.,0.));
#525=DIRECTION('',(0.,1.,0.));
#526=DIRECTION('center_axis',(-1.,0.,0.));
#527=DIRECTION('ref_axis',(0.,0.,1.));
#528=DIRECTION('',(0.,0.,-1.));
#529=DIRECTION('',(0.,1.,0.));
#530=DIRECTION('',(0.,0.,1.));
#531=DIRECTION('',(0.,1.,0.));
#532=DIRECTION('center_axis',(0.,0.,-1.));
#533=DIRECTION('ref_axis',(-1.,0.,0.));
#534=DIRECTION('',(1.,0.,0.));
#535=DIRECTION('',(-1.,0.,0.));
#536=DIRECTION('',(0.,1.,0.));
#537=DIRECTION('center_axis',(1.,0.,0.));
#538=DIRECTION('ref_axis',(0.,0.,-1.));
#539=DIRECTION('',(0.,0.,1.));
#540=DIRECTION('',(0.,0.,-1.));
#541=DIRECTION('',(0.,1.,0.));
#542=DIRECTION('center_axis',(0.,0.,1.));
#543=DIRECTION('ref_axis',(1.,0.,0.));
#544=DIRECTION('',(-1.,0.,0.));
#545=DIRECTION('',(1.,0.,0.));
#546=DIRECTION('',(0.,1.,0.));
#547=DIRECTION('center_axis',(1.,0.,0.));
#548=DIRECTION('ref_axis',(0.,0.,-1.));
#549=DIRECTION('',(0.,0.,1.));
#550=DIRECTION('',(0.,0.,-1.));
#551=DIRECTION('',(0.,1.,0.));
#552=DIRECTION('center_axis',(0.,0.,1.));
#553=DIRECTION('ref_axis',(1.,0.,0.));
#554=DIRECTION('',(1.,0.,0.));
#555=DIRECTION('',(0.,1.,0.));
#556=DIRECTION('center_axis',(-1.,0.,0.));
#557=DIRECTION('ref_axis',(0.,0.,1.));
#558=DIRECTION('',(0.,0.,-1.));
#559=DIRECTION('',(0.,0.,1.));
#560=DIRECTION('',(0.,1.,0.));
#561=DIRECTION('center_axis',(0.,0.,1.));
#562=DIRECTION('ref_axis',(1.,0.,0.));
#563=DIRECTION('',(1.,0.,0.));
#564=DIRECTION('',(1.,0.,0.));
#565=DIRECTION('center_axis',(0.,1.,0.));
#566=DIRECTION('ref_axis',(0.,0.,1.));
#567=DIRECTION('center_axis',(0.,1.,0.));
#568=DIRECTION('ref_axis',(1.,0.,0.));
#569=DIRECTION('center_axis',(-1.,0.,0.));
#570=DIRECTION('ref_axis',(0.,0.,1.));
#571=DIRECTION('center_axis',(-1.,0.,0.));
#572=DIRECTION('ref_axis',(0.,0.341383661943315,0.939924037014786));
#573=DIRECTION('center_axis',(-1.,0.,0.));
#574=DIRECTION('ref_axis',(0.,0.,1.));
#575=DIRECTION('center_axis',(1.,0.,0.));
#576=DIRECTION('ref_axis',(0.,0.341383661943315,0.939924037014786));
#577=DIRECTION('center_axis',(-1.,0.,0.));
#578=DIRECTION('ref_axis',(0.,0.341383661943315,0.939924037014786));
#579=DIRECTION('',(1.,0.,0.));
#580=DIRECTION('',(0.,0.,1.));
#581=DIRECTION('',(1.,0.,0.));
#582=CARTESIAN_POINT('',(0.,0.,0.));
#583=CARTESIAN_POINT('',(0.,0.,0.));
#584=CARTESIAN_POINT('Origin',(18.9949432200558,10.4772033976131,11.5));
#585=CARTESIAN_POINT('',(2.19126177333633E-15,10.0078008624411,10.2076044491047));
#586=CARTESIAN_POINT('Origin',(2.22044604925031E-15,10.4772033976131,11.5));
#587=CARTESIAN_POINT('',(-10.,10.0078008624411,10.2076044491047));
#588=CARTESIAN_POINT('',(18.9949432200558,10.0078008624411,10.2076044491047));
#589=CARTESIAN_POINT('Origin',(-10.,10.4772033976132,11.5));
#590=CARTESIAN_POINT('Origin',(-10.,11.,11.5));
#591=CARTESIAN_POINT('Origin',(11.0000001639128,6.,0.));
#592=CARTESIAN_POINT('',(7.00000010430813,6.,0.));
#593=CARTESIAN_POINT('',(11.0000001639128,6.,0.));
#594=CARTESIAN_POINT('',(14.5000000819564,6.,0.));
#595=CARTESIAN_POINT('',(7.00000010430813,6.,-5.));
#596=CARTESIAN_POINT('',(7.00000010430813,6.,0.));
#597=CARTESIAN_POINT('',(11.0000001639128,6.,-5.));
#598=CARTESIAN_POINT('',(7.00000010430813,6.,-5.));
#599=CARTESIAN_POINT('',(11.0000001639128,6.,0.));
#600=CARTESIAN_POINT('Origin',(11.0000001639128,11.0000001639128,0.));
#601=CARTESIAN_POINT('',(11.0000001639128,11.0000001639128,0.));
#602=CARTESIAN_POINT('',(11.0000001639128,5.50000008195639,0.));
#603=CARTESIAN_POINT('',(11.0000001639128,11.0000001639128,-5.));
#604=CARTESIAN_POINT('',(11.0000001639128,6.,-5.));
#605=CARTESIAN_POINT('',(11.0000001639128,11.0000001639128,0.));
#606=CARTESIAN_POINT('Origin',(7.00000010430813,11.0000001639128,0.));
#607=CARTESIAN_POINT('',(7.00000010430813,11.0000001639128,0.));
#608=CARTESIAN_POINT('',(12.5000000521541,11.0000001639128,0.));
#609=CARTESIAN_POINT('',(7.00000010430813,11.0000001639128,-5.));
#610=CARTESIAN_POINT('',(11.0000001639128,11.0000001639128,-5.));
#611=CARTESIAN_POINT('',(7.00000010430813,11.0000001639128,0.));
#612=CARTESIAN_POINT('Origin',(7.00000010430813,6.,0.));
#613=CARTESIAN_POINT('',(7.00000010430813,3.,0.));
#614=CARTESIAN_POINT('',(7.00000010430813,11.0000001639128,-5.));
#615=CARTESIAN_POINT('Origin',(9.00000013411045,8.50000008195639,-5.));
#616=CARTESIAN_POINT('Origin',(17.5,21.0000003129244,47.));
#617=CARTESIAN_POINT('',(0.5,21.0000003129244,47.));
#618=CARTESIAN_POINT('',(17.5,21.0000003129244,47.));
#619=CARTESIAN_POINT('',(9.,21.0000003129244,47.));
#620=CARTESIAN_POINT('',(0.5,21.0000003129244,58.));
#621=CARTESIAN_POINT('',(0.5,21.0000003129244,47.));
#622=CARTESIAN_POINT('',(17.5,21.0000003129244,58.));
#623=CARTESIAN_POINT('',(0.5,21.0000003129244,58.));
#624=CARTESIAN_POINT('',(17.5,21.0000003129244,47.));
#625=CARTESIAN_POINT('Origin',(0.5,1.00000031292439,47.));
#626=CARTESIAN_POINT('',(17.5,1.00000031292439,47.));
#627=CARTESIAN_POINT('',(0.5,1.00000031292439,47.));
#628=CARTESIAN_POINT('',(0.5,1.00000031292439,47.));
#629=CARTESIAN_POINT('',(17.5,1.00000031292439,58.));
#630=CARTESIAN_POINT('',(17.5,1.00000031292439,47.));
#631=CARTESIAN_POINT('',(0.5,1.00000031292439,58.));
#632=CARTESIAN_POINT('',(17.5,1.00000031292439,58.));
#633=CARTESIAN_POINT('',(0.5,1.00000031292439,47.));
#634=CARTESIAN_POINT('Origin',(9.,11.0000003129244,58.));
#635=CARTESIAN_POINT('',(17.5,21.0000003129244,58.));
#636=CARTESIAN_POINT('',(0.5,1.00000031292439,58.));
#637=CARTESIAN_POINT('Origin',(0.5,0.,47.));
#638=CARTESIAN_POINT('',(0.5,0.,47.));
#639=CARTESIAN_POINT('',(0.5,0.,47.));
#640=CARTESIAN_POINT('',(17.5,0.,47.));
#641=CARTESIAN_POINT('',(17.5,0.,47.));
#642=CARTESIAN_POINT('',(17.5,0.,47.));
#643=CARTESIAN_POINT('Origin',(0.,0.,0.));
#644=CARTESIAN_POINT('',(0.,0.,36.));
#645=CARTESIAN_POINT('',(0.,0.,0.));
#646=CARTESIAN_POINT('',(0.,0.,36.));
#647=CARTESIAN_POINT('',(0.,22.,36.));
#648=CARTESIAN_POINT('',(0.,0.,36.));
#649=CARTESIAN_POINT('',(0.,22.,0.));
#650=CARTESIAN_POINT('',(0.,22.,36.));
#651=CARTESIAN_POINT('',(0.,0.,0.));
#652=CARTESIAN_POINT('Origin',(18.,0.,0.));
#653=CARTESIAN_POINT('',(18.,0.,0.));
#654=CARTESIAN_POINT('',(0.,0.,0.));
#655=CARTESIAN_POINT('',(18.,22.,0.));
#656=CARTESIAN_POINT('',(0.,22.,0.));
#657=CARTESIAN_POINT('',(18.,0.,0.));
#658=CARTESIAN_POINT('Origin',(18.,0.,36.));
#659=CARTESIAN_POINT('',(18.,0.,36.));
#660=CARTESIAN_POINT('',(18.,0.,0.));
#661=CARTESIAN_POINT('',(18.,22.,36.));
#662=CARTESIAN_POINT('',(18.,22.,0.));
#663=CARTESIAN_POINT('',(18.,0.,36.));
#664=CARTESIAN_POINT('Origin',(17.5,0.,36.));
#665=CARTESIAN_POINT('',(17.5,0.,36.));
#666=CARTESIAN_POINT('',(18.,0.,36.));
#667=CARTESIAN_POINT('',(17.5,22.,36.));
#668=CARTESIAN_POINT('',(18.,22.,36.));
#669=CARTESIAN_POINT('',(17.5,0.,36.));
#670=CARTESIAN_POINT('Origin',(17.5,0.,47.));
#671=CARTESIAN_POINT('',(17.5,0.,36.));
#672=CARTESIAN_POINT('',(17.5,22.,47.));
#673=CARTESIAN_POINT('',(17.5,22.,36.));
#674=CARTESIAN_POINT('',(17.5,0.,47.));
#675=CARTESIAN_POINT('Origin',(0.5,0.,47.));
#676=CARTESIAN_POINT('',(0.5,22.,47.));
#677=CARTESIAN_POINT('',(17.5,22.,47.));
#678=CARTESIAN_POINT('',(0.5,0.,47.));
#679=CARTESIAN_POINT('Origin',(0.5,0.,36.));
#680=CARTESIAN_POINT('',(0.5,0.,36.));
#681=CARTESIAN_POINT('',(0.5,0.,47.));
#682=CARTESIAN_POINT('',(0.5,22.,36.));
#683=CARTESIAN_POINT('',(0.5,22.,47.));
#684=CARTESIAN_POINT('',(0.5,0.,36.));
#685=CARTESIAN_POINT('Origin',(0.,0.,36.));
#686=CARTESIAN_POINT('',(0.,0.,36.));
#687=CARTESIAN_POINT('',(0.,22.,36.));
#688=CARTESIAN_POINT('Origin',(9.,22.,23.5));
#689=CARTESIAN_POINT('Origin',(9.,0.,23.5));
#690=CARTESIAN_POINT('Origin',(28.,11.,11.5));
#691=CARTESIAN_POINT('',(28.,10.0078008624411,10.2076044491047));
#692=CARTESIAN_POINT('Origin',(28.,10.4772033976132,11.5));
#693=CARTESIAN_POINT('Origin',(-10.,11.,11.5));
#694=CARTESIAN_POINT('',(-10.,10.0078008624411,10.2076044491047));
#695=CARTESIAN_POINT('Origin',(-10.,10.4772033976132,11.5));
#696=CARTESIAN_POINT('Origin',(-10.,10.4772033976132,11.5));
#697=CARTESIAN_POINT('',(-10.,10.0078008624411,10.2076044491047));
#698=CARTESIAN_POINT('',(0.,0.,0.));
#699=UNCERTAINTY_MEASURE_WITH_UNIT(LENGTH_MEASURE(0.01),#705,
'DISTANCE_ACCURACY_VALUE',
'Maximum model space distance between geometric entities at asserted c
onnectivities');
#700=UNCERTAINTY_MEASURE_WITH_UNIT(LENGTH_MEASURE(0.01),#705,
'DISTANCE_ACCURACY_VALUE',
'Maximum model space distance between geometric entities at asserted c
onnectivities');
#701=UNCERTAINTY_MEASURE_WITH_UNIT(LENGTH_MEASURE(0.01),#705,
'DISTANCE_ACCURACY_VALUE',
'Maximum model space distance between geometric entities at asserted c
onnectivities');
#702=(
GEOMETRIC_REPRESENTATION_CONTEXT(3)
GLOBAL_UNCERTAINTY_ASSIGNED_CONTEXT((#699))
GLOBAL_UNIT_ASSIGNED_CONTEXT((#705,#707,#708))
REPRESENTATION_CONTEXT('','3D')
);
#703=(
GEOMETRIC_REPRESENTATION_CONTEXT(3)
GLOBAL_UNCERTAINTY_ASSIGNED_CONTEXT((#700))
GLOBAL_UNIT_ASSIGNED_CONTEXT((#705,#707,#708))
REPRESENTATION_CONTEXT('','3D')
);
#704=(
GEOMETRIC_REPRESENTATION_CONTEXT(3)
GLOBAL_UNCERTAINTY_ASSIGNED_CONTEXT((#701))
GLOBAL_UNIT_ASSIGNED_CONTEXT((#705,#707,#708))
REPRESENTATION_CONTEXT('','3D')
);
#705=(
LENGTH_UNIT()
NAMED_UNIT(*)
SI_UNIT(.MILLI.,.METRE.)
);
#706=(
LENGTH_UNIT()
NAMED_UNIT(*)
SI_UNIT($,.METRE.)
);
#707=(
NAMED_UNIT(*)
PLANE_ANGLE_UNIT()
SI_UNIT($,.RADIAN.)
);
#708=(
NAMED_UNIT(*)
SI_UNIT($,.STERADIAN.)
SOLID_ANGLE_UNIT()
);
#709=SHAPE_DEFINITION_REPRESENTATION(#711,#714);
#710=SHAPE_DEFINITION_REPRESENTATION(#712,#715);
#711=PRODUCT_DEFINITION_SHAPE('',$,#717);
#712=PRODUCT_DEFINITION_SHAPE('',$,#718);
#713=PRODUCT_DEFINITION_SHAPE($,$,#14);
#714=SHAPE_REPRESENTATION('',(#439,#469),#702);
#715=SHAPE_REPRESENTATION('',(#440),#703);
#716=PRODUCT_DEFINITION_CONTEXT('part definition',#724,'design');
#717=PRODUCT_DEFINITION('2026-07-15-12-07-25-077','Mt1/2',#719,#716);
#718=PRODUCT_DEFINITION('2026-07-15-12-18-51-042','Esterno1',#720,#716);
#719=PRODUCT_DEFINITION_FORMATION('',$,#726);
#720=PRODUCT_DEFINITION_FORMATION('',$,#727);
#721=PRODUCT_RELATED_PRODUCT_CATEGORY('Mt1/2','Mt1/2',(#726));
#722=PRODUCT_RELATED_PRODUCT_CATEGORY('Esterno1','Esterno1',(#727));
#723=APPLICATION_PROTOCOL_DEFINITION('international standard',
'automotive_design',2009,#724);
#724=APPLICATION_CONTEXT(
'Core Data for Automotive Mechanical Design Process');
#725=PRODUCT_CONTEXT('part definition',#724,'mechanical');
#726=PRODUCT('2026-07-15-12-07-25-077','Mt1/2',$,(#725));
#727=PRODUCT('2026-07-15-12-18-51-042','Esterno1',$,(#725));
#728=PRESENTATION_STYLE_ASSIGNMENT((#729));
#729=SURFACE_STYLE_USAGE(.BOTH.,#730);
#730=SURFACE_SIDE_STYLE('',(#731));
#731=SURFACE_STYLE_FILL_AREA(#732);
#732=FILL_AREA_STYLE('Acciaio - Satinato',(#733));
#733=FILL_AREA_STYLE_COLOUR('Acciaio - Satinato',#734);
#734=COLOUR_RGB('Acciaio - Satinato',0.627450980392157,0.627450980392157,
0.627450980392157);
ENDSEC;
END-ISO-10303-21;
