ISO-10303-21;
HEADER;
/* Generated by software containing ST-Developer
 * from STEP Tools, Inc. (www.steptools.com) 
 */

FILE_DESCRIPTION(
/* description */ (''),
/* implementation_level */ '2;1');

FILE_NAME(
/* name */ 'rv1.step',
/* time_stamp */ '2026-07-14T10:18:49+02:00',
/* author */ (''),
/* organization */ (''),
/* preprocessor_version */ 'ST-DEVELOPER v20.1',
/* originating_system */ 'Autodesk Translation Framework v15.8.0.0',
/* authorisation */ '');

FILE_SCHEMA (('AUTOMOTIVE_DESIGN { 1 0 10303 214 3 1 1 }'));
ENDSEC;

DATA;
#10=MECHANICAL_DESIGN_GEOMETRIC_PRESENTATION_REPRESENTATION('',(#17),#545);
#11=SHAPE_REPRESENTATION_RELATIONSHIP('SRR','None',#555,#12);
#12=ADVANCED_BREP_SHAPE_REPRESENTATION('',(#18),#543);
#13=ITEM_DEFINED_TRANSFORMATION($,$,#333,#360);
#14=(
REPRESENTATION_RELATIONSHIP($,$,#556,#555)
REPRESENTATION_RELATIONSHIP_WITH_TRANSFORMATION(#13)
SHAPE_REPRESENTATION_RELATIONSHIP()
);
#15=CONTEXT_DEPENDENT_SHAPE_REPRESENTATION(#14,#554);
#16=NEXT_ASSEMBLY_USAGE_OCCURRENCE('Componente1:1','Componente1:1',
'Componente1:1',#558,#559,'Componente1:1');
#17=STYLED_ITEM('',(#569),#18);
#18=MANIFOLD_SOLID_BREP('Corpo4',#319);
#19=FACE_BOUND('',#58,.T.);
#20=FACE_BOUND('',#59,.T.);
#21=FACE_BOUND('',#62,.T.);
#22=FACE_BOUND('',#63,.T.);
#23=PLANE('',#342);
#24=PLANE('',#345);
#25=PLANE('',#352);
#26=PLANE('',#353);
#27=PLANE('',#354);
#28=PLANE('',#355);
#29=PLANE('',#356);
#30=PLANE('',#357);
#31=PLANE('',#358);
#32=PLANE('',#359);
#33=FACE_OUTER_BOUND('',#47,.T.);
#34=FACE_OUTER_BOUND('',#48,.T.);
#35=FACE_OUTER_BOUND('',#49,.T.);
#36=FACE_OUTER_BOUND('',#50,.T.);
#37=FACE_OUTER_BOUND('',#51,.T.);
#38=FACE_OUTER_BOUND('',#52,.T.);
#39=FACE_OUTER_BOUND('',#53,.T.);
#40=FACE_OUTER_BOUND('',#54,.T.);
#41=FACE_OUTER_BOUND('',#55,.T.);
#42=FACE_OUTER_BOUND('',#56,.T.);
#43=FACE_OUTER_BOUND('',#57,.T.);
#44=FACE_OUTER_BOUND('',#60,.T.);
#45=FACE_OUTER_BOUND('',#61,.T.);
#46=FACE_OUTER_BOUND('',#64,.T.);
#47=EDGE_LOOP('',(#213,#214,#215,#216,#217));
#48=EDGE_LOOP('',(#218,#219,#220,#221,#222));
#49=EDGE_LOOP('',(#223,#224,#225,#226,#227,#228,#229,#230,#231,#232));
#50=EDGE_LOOP('',(#233,#234,#235,#236,#237,#238,#239,#240,#241,#242));
#51=EDGE_LOOP('',(#243,#244,#245,#246,#247));
#52=EDGE_LOOP('',(#248,#249,#250,#251,#252));
#53=EDGE_LOOP('',(#253,#254,#255,#256,#257,#258,#259,#260));
#54=EDGE_LOOP('',(#261,#262,#263,#264));
#55=EDGE_LOOP('',(#265,#266,#267,#268));
#56=EDGE_LOOP('',(#269,#270,#271,#272,#273,#274,#275,#276));
#57=EDGE_LOOP('',(#277,#278,#279,#280));
#58=EDGE_LOOP('',(#281));
#59=EDGE_LOOP('',(#282));
#60=EDGE_LOOP('',(#283,#284,#285,#286,#287,#288,#289,#290));
#61=EDGE_LOOP('',(#291,#292,#293,#294));
#62=EDGE_LOOP('',(#295));
#63=EDGE_LOOP('',(#296));
#64=EDGE_LOOP('',(#297,#298,#299,#300));
#65=LINE('',#457,#97);
#66=LINE('',#467,#98);
#67=LINE('',#472,#99);
#68=LINE('',#474,#100);
#69=LINE('',#475,#101);
#70=LINE('',#477,#102);
#71=LINE('',#482,#103);
#72=LINE('',#483,#104);
#73=LINE('',#487,#105);
#74=LINE('',#489,#106);
#75=LINE('',#491,#107);
#76=LINE('',#493,#108);
#77=LINE('',#497,#109);
#78=LINE('',#498,#110);
#79=LINE('',#502,#111);
#80=LINE('',#505,#112);
#81=LINE('',#508,#113);
#82=LINE('',#509,#114);
#83=LINE('',#513,#115);
#84=LINE('',#514,#116);
#85=LINE('',#515,#117);
#86=LINE('',#519,#118);
#87=LINE('',#520,#119);
#88=LINE('',#521,#120);
#89=LINE('',#524,#121);
#90=LINE('',#526,#122);
#91=LINE('',#527,#123);
#92=LINE('',#530,#124);
#93=LINE('',#531,#125);
#94=LINE('',#534,#126);
#95=LINE('',#535,#127);
#96=LINE('',#537,#128);
#97=VECTOR('',#369,3.99999999999999);
#98=VECTOR('',#380,3.99999999999999);
#99=VECTOR('',#385,10.);
#100=VECTOR('',#386,10.);
#101=VECTOR('',#387,10.);
#102=VECTOR('',#388,10.);
#103=VECTOR('',#393,10.);
#104=VECTOR('',#394,10.);
#105=VECTOR('',#397,10.);
#106=VECTOR('',#398,10.);
#107=VECTOR('',#399,10.);
#108=VECTOR('',#400,10.);
#109=VECTOR('',#405,10.);
#110=VECTOR('',#406,10.);
#111=VECTOR('',#411,4.);
#112=VECTOR('',#414,4.);
#113=VECTOR('',#419,10.);
#114=VECTOR('',#420,10.);
#115=VECTOR('',#423,10.);
#116=VECTOR('',#424,10.);
#117=VECTOR('',#425,10.);
#118=VECTOR('',#428,10.);
#119=VECTOR('',#429,10.);
#120=VECTOR('',#430,10.);
#121=VECTOR('',#433,10.);
#122=VECTOR('',#434,10.);
#123=VECTOR('',#435,10.);
#124=VECTOR('',#438,10.);
#125=VECTOR('',#439,10.);
#126=VECTOR('',#442,10.);
#127=VECTOR('',#443,10.);
#128=VECTOR('',#446,10.);
#129=CIRCLE('',#335,3.99999999999999);
#130=CIRCLE('',#336,3.99999999999999);
#131=CIRCLE('',#337,3.99999999999999);
#132=CIRCLE('',#339,3.99999999999999);
#133=CIRCLE('',#340,3.99999999999999);
#134=CIRCLE('',#341,3.99999999999999);
#135=CIRCLE('',#343,4.);
#136=CIRCLE('',#344,4.);
#137=CIRCLE('',#346,4.);
#138=CIRCLE('',#347,4.);
#139=CIRCLE('',#349,4.);
#140=CIRCLE('',#351,4.);
#141=VERTEX_POINT('',#454);
#142=VERTEX_POINT('',#456);
#143=VERTEX_POINT('',#458);
#144=VERTEX_POINT('',#462);
#145=VERTEX_POINT('',#463);
#146=VERTEX_POINT('',#466);
#147=VERTEX_POINT('',#470);
#148=VERTEX_POINT('',#471);
#149=VERTEX_POINT('',#473);
#150=VERTEX_POINT('',#476);
#151=VERTEX_POINT('',#478);
#152=VERTEX_POINT('',#481);
#153=VERTEX_POINT('',#485);
#154=VERTEX_POINT('',#486);
#155=VERTEX_POINT('',#488);
#156=VERTEX_POINT('',#490);
#157=VERTEX_POINT('',#492);
#158=VERTEX_POINT('',#494);
#159=VERTEX_POINT('',#500);
#160=VERTEX_POINT('',#504);
#161=VERTEX_POINT('',#511);
#162=VERTEX_POINT('',#512);
#163=VERTEX_POINT('',#517);
#164=VERTEX_POINT('',#518);
#165=VERTEX_POINT('',#523);
#166=VERTEX_POINT('',#525);
#167=VERTEX_POINT('',#529);
#168=VERTEX_POINT('',#533);
#169=EDGE_CURVE('',#141,#141,#129,.T.);
#170=EDGE_CURVE('',#141,#142,#65,.T.);
#171=EDGE_CURVE('',#143,#142,#130,.T.);
#172=EDGE_CURVE('',#142,#143,#131,.T.);
#173=EDGE_CURVE('',#144,#145,#132,.T.);
#174=EDGE_CURVE('',#145,#144,#133,.T.);
#175=EDGE_CURVE('',#145,#146,#66,.T.);
#176=EDGE_CURVE('',#146,#146,#134,.T.);
#177=EDGE_CURVE('',#147,#148,#67,.T.);
#178=EDGE_CURVE('',#148,#149,#68,.T.);
#179=EDGE_CURVE('',#144,#149,#69,.T.);
#180=EDGE_CURVE('',#150,#144,#70,.T.);
#181=EDGE_CURVE('',#150,#151,#135,.T.);
#182=EDGE_CURVE('',#151,#150,#136,.T.);
#183=EDGE_CURVE('',#152,#150,#71,.T.);
#184=EDGE_CURVE('',#152,#147,#72,.T.);
#185=EDGE_CURVE('',#153,#154,#73,.T.);
#186=EDGE_CURVE('',#154,#155,#74,.T.);
#187=EDGE_CURVE('',#155,#156,#75,.T.);
#188=EDGE_CURVE('',#157,#156,#76,.T.);
#189=EDGE_CURVE('',#157,#158,#137,.T.);
#190=EDGE_CURVE('',#158,#157,#138,.T.);
#191=EDGE_CURVE('',#143,#157,#77,.T.);
#192=EDGE_CURVE('',#153,#143,#78,.T.);
#193=EDGE_CURVE('',#159,#159,#139,.T.);
#194=EDGE_CURVE('',#159,#158,#79,.T.);
#195=EDGE_CURVE('',#151,#160,#80,.T.);
#196=EDGE_CURVE('',#160,#160,#140,.T.);
#197=EDGE_CURVE('',#153,#149,#81,.T.);
#198=EDGE_CURVE('',#152,#156,#82,.T.);
#199=EDGE_CURVE('',#161,#162,#83,.T.);
#200=EDGE_CURVE('',#161,#155,#84,.T.);
#201=EDGE_CURVE('',#162,#154,#85,.T.);
#202=EDGE_CURVE('',#163,#164,#86,.T.);
#203=EDGE_CURVE('',#164,#148,#87,.T.);
#204=EDGE_CURVE('',#163,#147,#88,.T.);
#205=EDGE_CURVE('',#164,#165,#89,.T.);
#206=EDGE_CURVE('',#166,#165,#90,.T.);
#207=EDGE_CURVE('',#162,#166,#91,.T.);
#208=EDGE_CURVE('',#167,#166,#92,.T.);
#209=EDGE_CURVE('',#161,#167,#93,.T.);
#210=EDGE_CURVE('',#168,#167,#94,.T.);
#211=EDGE_CURVE('',#163,#168,#95,.T.);
#212=EDGE_CURVE('',#165,#168,#96,.T.);
#213=ORIENTED_EDGE('',*,*,#169,.F.);
#214=ORIENTED_EDGE('',*,*,#170,.T.);
#215=ORIENTED_EDGE('',*,*,#171,.F.);
#216=ORIENTED_EDGE('',*,*,#172,.F.);
#217=ORIENTED_EDGE('',*,*,#170,.F.);
#218=ORIENTED_EDGE('',*,*,#173,.F.);
#219=ORIENTED_EDGE('',*,*,#174,.F.);
#220=ORIENTED_EDGE('',*,*,#175,.T.);
#221=ORIENTED_EDGE('',*,*,#176,.F.);
#222=ORIENTED_EDGE('',*,*,#175,.F.);
#223=ORIENTED_EDGE('',*,*,#177,.T.);
#224=ORIENTED_EDGE('',*,*,#178,.T.);
#225=ORIENTED_EDGE('',*,*,#179,.F.);
#226=ORIENTED_EDGE('',*,*,#173,.T.);
#227=ORIENTED_EDGE('',*,*,#174,.T.);
#228=ORIENTED_EDGE('',*,*,#180,.F.);
#229=ORIENTED_EDGE('',*,*,#181,.T.);
#230=ORIENTED_EDGE('',*,*,#182,.T.);
#231=ORIENTED_EDGE('',*,*,#183,.F.);
#232=ORIENTED_EDGE('',*,*,#184,.T.);
#233=ORIENTED_EDGE('',*,*,#185,.T.);
#234=ORIENTED_EDGE('',*,*,#186,.T.);
#235=ORIENTED_EDGE('',*,*,#187,.T.);
#236=ORIENTED_EDGE('',*,*,#188,.F.);
#237=ORIENTED_EDGE('',*,*,#189,.T.);
#238=ORIENTED_EDGE('',*,*,#190,.T.);
#239=ORIENTED_EDGE('',*,*,#191,.F.);
#240=ORIENTED_EDGE('',*,*,#171,.T.);
#241=ORIENTED_EDGE('',*,*,#172,.T.);
#242=ORIENTED_EDGE('',*,*,#192,.F.);
#243=ORIENTED_EDGE('',*,*,#193,.F.);
#244=ORIENTED_EDGE('',*,*,#194,.T.);
#245=ORIENTED_EDGE('',*,*,#189,.F.);
#246=ORIENTED_EDGE('',*,*,#190,.F.);
#247=ORIENTED_EDGE('',*,*,#194,.F.);
#248=ORIENTED_EDGE('',*,*,#181,.F.);
#249=ORIENTED_EDGE('',*,*,#182,.F.);
#250=ORIENTED_EDGE('',*,*,#195,.T.);
#251=ORIENTED_EDGE('',*,*,#196,.F.);
#252=ORIENTED_EDGE('',*,*,#195,.F.);
#253=ORIENTED_EDGE('',*,*,#179,.T.);
#254=ORIENTED_EDGE('',*,*,#197,.F.);
#255=ORIENTED_EDGE('',*,*,#192,.T.);
#256=ORIENTED_EDGE('',*,*,#191,.T.);
#257=ORIENTED_EDGE('',*,*,#188,.T.);
#258=ORIENTED_EDGE('',*,*,#198,.F.);
#259=ORIENTED_EDGE('',*,*,#183,.T.);
#260=ORIENTED_EDGE('',*,*,#180,.T.);
#261=ORIENTED_EDGE('',*,*,#199,.F.);
#262=ORIENTED_EDGE('',*,*,#200,.T.);
#263=ORIENTED_EDGE('',*,*,#186,.F.);
#264=ORIENTED_EDGE('',*,*,#201,.F.);
#265=ORIENTED_EDGE('',*,*,#202,.T.);
#266=ORIENTED_EDGE('',*,*,#203,.T.);
#267=ORIENTED_EDGE('',*,*,#177,.F.);
#268=ORIENTED_EDGE('',*,*,#204,.F.);
#269=ORIENTED_EDGE('',*,*,#197,.T.);
#270=ORIENTED_EDGE('',*,*,#178,.F.);
#271=ORIENTED_EDGE('',*,*,#203,.F.);
#272=ORIENTED_EDGE('',*,*,#205,.T.);
#273=ORIENTED_EDGE('',*,*,#206,.F.);
#274=ORIENTED_EDGE('',*,*,#207,.F.);
#275=ORIENTED_EDGE('',*,*,#201,.T.);
#276=ORIENTED_EDGE('',*,*,#185,.F.);
#277=ORIENTED_EDGE('',*,*,#207,.T.);
#278=ORIENTED_EDGE('',*,*,#208,.F.);
#279=ORIENTED_EDGE('',*,*,#209,.F.);
#280=ORIENTED_EDGE('',*,*,#199,.T.);
#281=ORIENTED_EDGE('',*,*,#169,.T.);
#282=ORIENTED_EDGE('',*,*,#193,.T.);
#283=ORIENTED_EDGE('',*,*,#198,.T.);
#284=ORIENTED_EDGE('',*,*,#187,.F.);
#285=ORIENTED_EDGE('',*,*,#200,.F.);
#286=ORIENTED_EDGE('',*,*,#209,.T.);
#287=ORIENTED_EDGE('',*,*,#210,.F.);
#288=ORIENTED_EDGE('',*,*,#211,.F.);
#289=ORIENTED_EDGE('',*,*,#204,.T.);
#290=ORIENTED_EDGE('',*,*,#184,.F.);
#291=ORIENTED_EDGE('',*,*,#211,.T.);
#292=ORIENTED_EDGE('',*,*,#212,.F.);
#293=ORIENTED_EDGE('',*,*,#205,.F.);
#294=ORIENTED_EDGE('',*,*,#202,.F.);
#295=ORIENTED_EDGE('',*,*,#176,.T.);
#296=ORIENTED_EDGE('',*,*,#196,.T.);
#297=ORIENTED_EDGE('',*,*,#212,.T.);
#298=ORIENTED_EDGE('',*,*,#210,.T.);
#299=ORIENTED_EDGE('',*,*,#208,.T.);
#300=ORIENTED_EDGE('',*,*,#206,.T.);
#301=CYLINDRICAL_SURFACE('',#334,3.99999999999999);
#302=CYLINDRICAL_SURFACE('',#338,3.99999999999999);
#303=CYLINDRICAL_SURFACE('',#348,4.);
#304=CYLINDRICAL_SURFACE('',#350,4.);
#305=ADVANCED_FACE('',(#33),#301,.F.);
#306=ADVANCED_FACE('',(#34),#302,.F.);
#307=ADVANCED_FACE('',(#35),#23,.T.);
#308=ADVANCED_FACE('',(#36),#24,.T.);
#309=ADVANCED_FACE('',(#37),#303,.F.);
#310=ADVANCED_FACE('',(#38),#304,.F.);
#311=ADVANCED_FACE('',(#39),#25,.F.);
#312=ADVANCED_FACE('',(#40),#26,.T.);
#313=ADVANCED_FACE('',(#41),#27,.T.);
#314=ADVANCED_FACE('',(#42),#28,.T.);
#315=ADVANCED_FACE('',(#43,#19,#20),#29,.T.);
#316=ADVANCED_FACE('',(#44),#30,.T.);
#317=ADVANCED_FACE('',(#45,#21,#22),#31,.T.);
#318=ADVANCED_FACE('',(#46),#32,.T.);
#319=CLOSED_SHELL('',(#305,#306,#307,#308,#309,#310,#311,#312,#313,#314,
#315,#316,#317,#318));
#320=DERIVED_UNIT_ELEMENT(#322,1.);
#321=DERIVED_UNIT_ELEMENT(#547,-3.);
#322=(
MASS_UNIT()
NAMED_UNIT(*)
SI_UNIT(.KILO.,.GRAM.)
);
#323=DERIVED_UNIT((#320,#321));
#324=MEASURE_REPRESENTATION_ITEM('density measure',
POSITIVE_RATIO_MEASURE(7850.),#323);
#325=PROPERTY_DEFINITION_REPRESENTATION(#330,#327);
#326=PROPERTY_DEFINITION_REPRESENTATION(#331,#328);
#327=REPRESENTATION('material name',(#329),#544);
#328=REPRESENTATION('density',(#324),#544);
#329=DESCRIPTIVE_REPRESENTATION_ITEM('Acciaio','Acciaio');
#330=PROPERTY_DEFINITION('material property','material name',#559);
#331=PROPERTY_DEFINITION('material property','density of part',#559);
#332=AXIS2_PLACEMENT_3D('',#451,#361,#362);
#333=AXIS2_PLACEMENT_3D('',#452,#363,#364);
#334=AXIS2_PLACEMENT_3D('',#453,#365,#366);
#335=AXIS2_PLACEMENT_3D('',#455,#367,#368);
#336=AXIS2_PLACEMENT_3D('',#459,#370,#371);
#337=AXIS2_PLACEMENT_3D('',#460,#372,#373);
#338=AXIS2_PLACEMENT_3D('',#461,#374,#375);
#339=AXIS2_PLACEMENT_3D('',#464,#376,#377);
#340=AXIS2_PLACEMENT_3D('',#465,#378,#379);
#341=AXIS2_PLACEMENT_3D('',#468,#381,#382);
#342=AXIS2_PLACEMENT_3D('',#469,#383,#384);
#343=AXIS2_PLACEMENT_3D('',#479,#389,#390);
#344=AXIS2_PLACEMENT_3D('',#480,#391,#392);
#345=AXIS2_PLACEMENT_3D('',#484,#395,#396);
#346=AXIS2_PLACEMENT_3D('',#495,#401,#402);
#347=AXIS2_PLACEMENT_3D('',#496,#403,#404);
#348=AXIS2_PLACEMENT_3D('',#499,#407,#408);
#349=AXIS2_PLACEMENT_3D('',#501,#409,#410);
#350=AXIS2_PLACEMENT_3D('',#503,#412,#413);
#351=AXIS2_PLACEMENT_3D('',#506,#415,#416);
#352=AXIS2_PLACEMENT_3D('',#507,#417,#418);
#353=AXIS2_PLACEMENT_3D('',#510,#421,#422);
#354=AXIS2_PLACEMENT_3D('',#516,#426,#427);
#355=AXIS2_PLACEMENT_3D('',#522,#431,#432);
#356=AXIS2_PLACEMENT_3D('',#528,#436,#437);
#357=AXIS2_PLACEMENT_3D('',#532,#440,#441);
#358=AXIS2_PLACEMENT_3D('',#536,#444,#445);
#359=AXIS2_PLACEMENT_3D('',#538,#447,#448);
#360=AXIS2_PLACEMENT_3D('',#539,#449,#450);
#361=DIRECTION('axis',(0.,0.,1.));
#362=DIRECTION('refdir',(1.,0.,0.));
#363=DIRECTION('axis',(0.,0.,1.));
#364=DIRECTION('refdir',(1.,0.,0.));
#365=DIRECTION('center_axis',(-1.,0.,0.));
#366=DIRECTION('ref_axis',(0.,0.,1.));
#367=DIRECTION('center_axis',(-1.,0.,0.));
#368=DIRECTION('ref_axis',(0.,0.,1.));
#369=DIRECTION('',(-1.,0.,0.));
#370=DIRECTION('center_axis',(1.,0.,0.));
#371=DIRECTION('ref_axis',(0.,0.,1.));
#372=DIRECTION('center_axis',(1.,0.,0.));
#373=DIRECTION('ref_axis',(0.,0.,1.));
#374=DIRECTION('center_axis',(-1.,0.,0.));
#375=DIRECTION('ref_axis',(0.,0.,1.));
#376=DIRECTION('center_axis',(-1.,0.,0.));
#377=DIRECTION('ref_axis',(0.,0.,1.));
#378=DIRECTION('center_axis',(-1.,0.,0.));
#379=DIRECTION('ref_axis',(0.,0.,1.));
#380=DIRECTION('',(-1.,0.,0.));
#381=DIRECTION('center_axis',(1.,0.,0.));
#382=DIRECTION('ref_axis',(0.,0.,1.));
#383=DIRECTION('center_axis',(1.,0.,0.));
#384=DIRECTION('ref_axis',(0.,0.,-1.));
#385=DIRECTION('',(0.,0.,-1.));
#386=DIRECTION('',(0.,1.,0.));
#387=DIRECTION('',(0.,0.,-1.));
#388=DIRECTION('',(0.,0.,-1.));
#389=DIRECTION('center_axis',(-1.,0.,0.));
#390=DIRECTION('ref_axis',(0.,0.,1.));
#391=DIRECTION('center_axis',(-1.,0.,0.));
#392=DIRECTION('ref_axis',(0.,0.,1.));
#393=DIRECTION('',(0.,0.,-1.));
#394=DIRECTION('',(0.,-1.,-6.93889390390723E-18));
#395=DIRECTION('center_axis',(-1.,0.,0.));
#396=DIRECTION('ref_axis',(0.,0.,1.));
#397=DIRECTION('',(0.,-1.,0.));
#398=DIRECTION('',(0.,0.,1.));
#399=DIRECTION('',(0.,1.,0.));
#400=DIRECTION('',(0.,0.,1.));
#401=DIRECTION('center_axis',(1.,0.,0.));
#402=DIRECTION('ref_axis',(0.,0.,1.));
#403=DIRECTION('center_axis',(1.,0.,0.));
#404=DIRECTION('ref_axis',(0.,0.,1.));
#405=DIRECTION('',(0.,0.,1.));
#406=DIRECTION('',(0.,0.,1.));
#407=DIRECTION('center_axis',(-1.,0.,0.));
#408=DIRECTION('ref_axis',(0.,0.,1.));
#409=DIRECTION('center_axis',(-1.,0.,0.));
#410=DIRECTION('ref_axis',(0.,0.,1.));
#411=DIRECTION('',(-1.,0.,0.));
#412=DIRECTION('center_axis',(-1.,0.,0.));
#413=DIRECTION('ref_axis',(0.,0.,1.));
#414=DIRECTION('',(-1.,0.,0.));
#415=DIRECTION('center_axis',(1.,0.,0.));
#416=DIRECTION('ref_axis',(0.,0.,1.));
#417=DIRECTION('center_axis',(0.,1.,0.));
#418=DIRECTION('ref_axis',(1.,0.,0.));
#419=DIRECTION('',(-1.,0.,0.));
#420=DIRECTION('',(1.,0.,0.));
#421=DIRECTION('center_axis',(0.,-1.,0.));
#422=DIRECTION('ref_axis',(0.,0.,1.));
#423=DIRECTION('',(0.,0.,-1.));
#424=DIRECTION('',(-1.,0.,0.));
#425=DIRECTION('',(-1.,0.,0.));
#426=DIRECTION('center_axis',(0.,-1.,0.));
#427=DIRECTION('ref_axis',(0.,0.,-1.));
#428=DIRECTION('',(0.,0.,-1.));
#429=DIRECTION('',(1.,0.,0.));
#430=DIRECTION('',(1.,0.,0.));
#431=DIRECTION('center_axis',(0.,0.,-1.));
#432=DIRECTION('ref_axis',(-1.,0.,0.));
#433=DIRECTION('',(0.,1.,0.));
#434=DIRECTION('',(-1.,0.,0.));
#435=DIRECTION('',(0.,1.,0.));
#436=DIRECTION('center_axis',(1.,0.,0.));
#437=DIRECTION('ref_axis',(0.,0.,-1.));
#438=DIRECTION('',(0.,0.,-1.));
#439=DIRECTION('',(0.,1.,0.));
#440=DIRECTION('center_axis',(0.,0.,1.));
#441=DIRECTION('ref_axis',(1.,0.,0.));
#442=DIRECTION('',(1.,0.,0.));
#443=DIRECTION('',(0.,1.,0.));
#444=DIRECTION('center_axis',(-1.,0.,0.));
#445=DIRECTION('ref_axis',(0.,0.,1.));
#446=DIRECTION('',(0.,0.,1.));
#447=DIRECTION('center_axis',(0.,1.,0.));
#448=DIRECTION('ref_axis',(0.,0.,1.));
#449=DIRECTION('',(0.,0.,1.));
#450=DIRECTION('',(1.,0.,0.));
#451=CARTESIAN_POINT('',(0.,0.,0.));
#452=CARTESIAN_POINT('',(0.,0.,0.));
#453=CARTESIAN_POINT('Origin',(150.,-4.,-226.));
#454=CARTESIAN_POINT('',(120.,-4.,-230.));
#455=CARTESIAN_POINT('Origin',(120.,-4.,-226.));
#456=CARTESIAN_POINT('',(110.,-4.,-230.));
#457=CARTESIAN_POINT('',(150.,-4.,-230.));
#458=CARTESIAN_POINT('',(110.,0.,-226.));
#459=CARTESIAN_POINT('Origin',(110.,-4.,-226.));
#460=CARTESIAN_POINT('Origin',(110.,-4.,-226.));
#461=CARTESIAN_POINT('Origin',(150.,-4.,-226.));
#462=CARTESIAN_POINT('',(9.99999999999998,0.,-226.));
#463=CARTESIAN_POINT('',(9.99999999999998,-4.,-230.));
#464=CARTESIAN_POINT('Origin',(10.,-4.,-226.));
#465=CARTESIAN_POINT('Origin',(10.,-4.,-226.));
#466=CARTESIAN_POINT('',(0.,-4.,-230.));
#467=CARTESIAN_POINT('',(150.,-4.,-230.));
#468=CARTESIAN_POINT('Origin',(0.,-4.,-226.));
#469=CARTESIAN_POINT('Origin',(10.,-20.,-120.));
#470=CARTESIAN_POINT('',(10.,-40.,0.));
#471=CARTESIAN_POINT('',(10.,-40.,-240.));
#472=CARTESIAN_POINT('',(10.,-40.,0.));
#473=CARTESIAN_POINT('',(10.,0.,-240.));
#474=CARTESIAN_POINT('',(10.,-40.,-240.));
#475=CARTESIAN_POINT('',(10.,0.,-120.));
#476=CARTESIAN_POINT('',(10.,0.,-14.));
#477=CARTESIAN_POINT('',(10.,0.,-120.));
#478=CARTESIAN_POINT('',(10.,-4.,-18.));
#479=CARTESIAN_POINT('Origin',(10.,-4.,-14.));
#480=CARTESIAN_POINT('Origin',(10.,-4.,-14.));
#481=CARTESIAN_POINT('',(10.,0.,2.77555756156289E-16));
#482=CARTESIAN_POINT('',(10.,0.,-120.));
#483=CARTESIAN_POINT('',(10.,0.,2.77555756156289E-16));
#484=CARTESIAN_POINT('Origin',(110.,-20.,-120.));
#485=CARTESIAN_POINT('',(110.,0.,-240.));
#486=CARTESIAN_POINT('',(110.,-40.,-240.));
#487=CARTESIAN_POINT('',(110.,-40.,-240.));
#488=CARTESIAN_POINT('',(110.,-40.,0.));
#489=CARTESIAN_POINT('',(110.,-40.,0.));
#490=CARTESIAN_POINT('',(110.,0.,0.));
#491=CARTESIAN_POINT('',(110.,0.,0.));
#492=CARTESIAN_POINT('',(110.,0.,-14.));
#493=CARTESIAN_POINT('',(110.,0.,-120.));
#494=CARTESIAN_POINT('',(110.,-4.,-18.));
#495=CARTESIAN_POINT('Origin',(110.,-4.,-14.));
#496=CARTESIAN_POINT('Origin',(110.,-4.,-14.));
#497=CARTESIAN_POINT('',(110.,0.,-120.));
#498=CARTESIAN_POINT('',(110.,0.,-120.));
#499=CARTESIAN_POINT('Origin',(150.,-4.,-14.));
#500=CARTESIAN_POINT('',(120.,-4.,-18.));
#501=CARTESIAN_POINT('Origin',(120.,-4.,-14.));
#502=CARTESIAN_POINT('',(150.,-4.,-18.));
#503=CARTESIAN_POINT('Origin',(150.,-4.,-14.));
#504=CARTESIAN_POINT('',(0.,-4.,-18.));
#505=CARTESIAN_POINT('',(150.,-4.,-18.));
#506=CARTESIAN_POINT('Origin',(0.,-4.,-14.));
#507=CARTESIAN_POINT('Origin',(60.,0.,-120.));
#508=CARTESIAN_POINT('',(120.,0.,-240.));
#509=CARTESIAN_POINT('',(0.,0.,0.));
#510=CARTESIAN_POINT('Origin',(120.,-40.,-240.));
#511=CARTESIAN_POINT('',(120.,-40.,0.));
#512=CARTESIAN_POINT('',(120.,-40.,-240.));
#513=CARTESIAN_POINT('',(120.,-40.,0.));
#514=CARTESIAN_POINT('',(120.,-40.,0.));
#515=CARTESIAN_POINT('',(120.,-40.,-240.));
#516=CARTESIAN_POINT('Origin',(0.,-40.,0.));
#517=CARTESIAN_POINT('',(0.,-40.,0.));
#518=CARTESIAN_POINT('',(0.,-40.,-240.));
#519=CARTESIAN_POINT('',(0.,-40.,0.));
#520=CARTESIAN_POINT('',(0.,-40.,-240.));
#521=CARTESIAN_POINT('',(0.,-40.,0.));
#522=CARTESIAN_POINT('Origin',(120.,0.,-240.));
#523=CARTESIAN_POINT('',(0.,10.,-240.));
#524=CARTESIAN_POINT('',(0.,-40.,-240.));
#525=CARTESIAN_POINT('',(120.,10.,-240.));
#526=CARTESIAN_POINT('',(120.,10.,-240.));
#527=CARTESIAN_POINT('',(120.,0.,-240.));
#528=CARTESIAN_POINT('Origin',(120.,0.,0.));
#529=CARTESIAN_POINT('',(120.,10.,0.));
#530=CARTESIAN_POINT('',(120.,10.,0.));
#531=CARTESIAN_POINT('',(120.,0.,0.));
#532=CARTESIAN_POINT('Origin',(0.,0.,0.));
#533=CARTESIAN_POINT('',(0.,10.,0.));
#534=CARTESIAN_POINT('',(0.,10.,0.));
#535=CARTESIAN_POINT('',(0.,0.,0.));
#536=CARTESIAN_POINT('Origin',(0.,0.,-240.));
#537=CARTESIAN_POINT('',(0.,10.,-240.));
#538=CARTESIAN_POINT('Origin',(60.,10.,-120.));
#539=CARTESIAN_POINT('',(0.,0.,0.));
#540=UNCERTAINTY_MEASURE_WITH_UNIT(LENGTH_MEASURE(0.01),#546,
'DISTANCE_ACCURACY_VALUE',
'Maximum model space distance between geometric entities at asserted c
onnectivities');
#541=UNCERTAINTY_MEASURE_WITH_UNIT(LENGTH_MEASURE(0.01),#546,
'DISTANCE_ACCURACY_VALUE',
'Maximum model space distance between geometric entities at asserted c
onnectivities');
#542=UNCERTAINTY_MEASURE_WITH_UNIT(LENGTH_MEASURE(0.01),#546,
'DISTANCE_ACCURACY_VALUE',
'Maximum model space distance between geometric entities at asserted c
onnectivities');
#543=(
GEOMETRIC_REPRESENTATION_CONTEXT(3)
GLOBAL_UNCERTAINTY_ASSIGNED_CONTEXT((#540))
GLOBAL_UNIT_ASSIGNED_CONTEXT((#546,#548,#549))
REPRESENTATION_CONTEXT('','3D')
);
#544=(
GEOMETRIC_REPRESENTATION_CONTEXT(3)
GLOBAL_UNCERTAINTY_ASSIGNED_CONTEXT((#541))
GLOBAL_UNIT_ASSIGNED_CONTEXT((#546,#548,#549))
REPRESENTATION_CONTEXT('','3D')
);
#545=(
GEOMETRIC_REPRESENTATION_CONTEXT(3)
GLOBAL_UNCERTAINTY_ASSIGNED_CONTEXT((#542))
GLOBAL_UNIT_ASSIGNED_CONTEXT((#546,#548,#549))
REPRESENTATION_CONTEXT('','3D')
);
#546=(
LENGTH_UNIT()
NAMED_UNIT(*)
SI_UNIT(.MILLI.,.METRE.)
);
#547=(
LENGTH_UNIT()
NAMED_UNIT(*)
SI_UNIT($,.METRE.)
);
#548=(
NAMED_UNIT(*)
PLANE_ANGLE_UNIT()
SI_UNIT($,.RADIAN.)
);
#549=(
NAMED_UNIT(*)
SI_UNIT($,.STERADIAN.)
SOLID_ANGLE_UNIT()
);
#550=SHAPE_DEFINITION_REPRESENTATION(#552,#555);
#551=SHAPE_DEFINITION_REPRESENTATION(#553,#556);
#552=PRODUCT_DEFINITION_SHAPE('',$,#558);
#553=PRODUCT_DEFINITION_SHAPE('',$,#559);
#554=PRODUCT_DEFINITION_SHAPE($,$,#16);
#555=SHAPE_REPRESENTATION('',(#332,#360),#543);
#556=SHAPE_REPRESENTATION('',(#333),#544);
#557=PRODUCT_DEFINITION_CONTEXT('part definition',#565,'design');
#558=PRODUCT_DEFINITION('2026-07-13-11-31-35-668','rv1',#560,#557);
#559=PRODUCT_DEFINITION('2026-07-13-17-39-18-930','Componente1',#561,#557);
#560=PRODUCT_DEFINITION_FORMATION('',$,#567);
#561=PRODUCT_DEFINITION_FORMATION('',$,#568);
#562=PRODUCT_RELATED_PRODUCT_CATEGORY('rv1','rv1',(#567));
#563=PRODUCT_RELATED_PRODUCT_CATEGORY('Componente1','Componente1',(#568));
#564=APPLICATION_PROTOCOL_DEFINITION('international standard',
'automotive_design',2009,#565);
#565=APPLICATION_CONTEXT(
'Core Data for Automotive Mechanical Design Process');
#566=PRODUCT_CONTEXT('part definition',#565,'mechanical');
#567=PRODUCT('2026-07-13-11-31-35-668','rv1',$,(#566));
#568=PRODUCT('2026-07-13-17-39-18-930','Componente1',$,(#566));
#569=PRESENTATION_STYLE_ASSIGNMENT((#570));
#570=SURFACE_STYLE_USAGE(.BOTH.,#571);
#571=SURFACE_SIDE_STYLE('',(#572));
#572=SURFACE_STYLE_FILL_AREA(#573);
#573=FILL_AREA_STYLE('Acciaio - Satinato',(#574));
#574=FILL_AREA_STYLE_COLOUR('Acciaio - Satinato',#575);
#575=COLOUR_RGB('Acciaio - Satinato',0.627450980392157,0.627450980392157,
0.627450980392157);
ENDSEC;
END-ISO-10303-21;
